# xmcd
#
# Track frame offsets: 
#        150
#        18772
#        34695
#        57315
#        76407
#        92042
#        115367
#        131077
#        142687
#        156337
#        175627
#        193930
#        209250
#        232770
#        261372
#
# Disc length: 3743 seconds
#
# Revision: 2
# Processed by: cddbd v1.5.1PL0 Copyright (c) Steve Scherf et al.
# Submitted via: ExactAudioCopy v0.95a5
#
DISCID=c40e9d0f
DTITLE=Various Artist - ????? '86 BEST 30 DISC 1
DYEAR=1900
DGENRE=Pop
TTITLE0=CHA-CHA-CHA
TTITLE1=????Network
TTITLE2=?????
TTITLE3=My Revolution
TTITLE4=??1000%
TTITLE5=????????
TTITLE6=Song for U.S.A
TTITLE7=OH!! POPSTAR
TTITLE8=????????
TTITLE9=??????????
TTITLE10=????????????
TTITLE11=?????????
TTITLE12=????
TTITLE13=????
TTITLE14=??Kiss
EXTD=
EXTT0=
EXTT1=
EXTT2=
EXTT3=
EXTT4=
EXTT5=
EXTT6=
EXTT7=
EXTT8=
EXTT9=
EXTT10=
EXTT11=
EXTT12=
EXTT13=
EXTT14=
PLAYORDER=
